<svg xmlns="http://www.w3.org/2000/svg" width="1440" height="1440" preserveAspectRatio="xMidYMid meet" version="1.0" viewBox="0 0 1080 1080"><metadata>Created by potrace 1.14, written by Peter Selinger 2001-2017</metadata><g fill="#000" stroke="none"><path d="M5159 10796 c-2 -2 -51 -6 -109 -10 -58 -4 -118 -9 -134 -11 -16 -2 -59 -6 -94 -10 -36 -3 -68 -8 -71 -9 -3 -2 -28 -7 -56 -10 -559 -72 -1211 -303 -1748 -620 -175 -102 -209 -123 -242 -148 -5 -5 -35 -25 -65 -45 -51 -33 -141 -99 -215 -155 -63 -49 -262 -214 -310 -257 -76 -69 -375 -370 -415 -418 -19 -22 -49 -58 -67 -80 -18 -21 -44 -51 -58 -68 -14 -16 -65 -82 -113 -145 -48 -63 -90 -116 -94 -118 -5 -2 -8 -10 -8 -17 0 -7 -3 -15 -8 -17 -4 -1 -30 -37 -57 -78 -28 -41 -53 -77 -56 -80 -9 -7 -176 -287 -228 -380 -106 -191 -265 -542 -338 -745 -73 -204 -179 -562 -200 -674 -2 -14 -12 -61 -23 -106 -26 -113 -71 -397 -85 -540 -4 -33 -8 -71 -10 -85 -27 -184 -27 -905 0 -1073 2 -12 6 -53 10 -90 3 -37 8 -76 10 -87 3 -16 7 -41 21 -150 2 -19 6 -42 9 -50 2 -8 6 -31 9 -50 6 -37 21 -125 31 -175 14 -75 89 -369 116 -459 17 -54 32 -106 34 -115 5 -19 83 -239 118 -331 87 -227 241 -548 353 -737 11 -17 36 -61 58 -98 52 -92 251 -386 317 -471 30 -38 59 -76 66 -84 139 -180 479 -541 642 -680 35 -30 68 -60 75 -65 6 -6 36 -30 66 -55 30 -25 64 -53 75 -62 11 -9 54 -41 95 -72 41 -30 81 -60 87 -66 31 -26 339 -224 437 -280 185 -106 434 -226 631 -305 39 -15 79 -31 90 -36 50 -22 361 -121 465 -148 173 -45 394 -91 513 -106 16 -2 40 -6 55 -9 15 -3 55 -8 89 -11 34 -3 70 -7 80 -9 142 -27 833 -27 993 -1 14 2 50 7 80 10 30 4 66 8 80 10 32 4 110 17 130 20 8 1 35 6 60 10 25 4 54 9 65 12 11 2 45 8 75 14 30 6 69 14 85 19 17 6 70 19 119 30 49 12 155 41 235 66 130 40 169 53 246 85 11 4 31 11 45 15 54 15 306 127 456 202 277 138 587 331 784 485 8 7 47 36 85 66 39 30 101 82 140 115 38 34 83 72 100 86 102 84 443 441 540 564 22 28 42 53 46 56 44 36 452 629 454 660 0 3 8 16 17 30 59 93 207 387 284 567 110 258 234 622 279 823 2 8 13 56 25 105 12 50 24 99 26 110 2 11 6 31 9 45 9 42 14 72 31 165 8 50 17 101 19 115 4 22 27 204 40 315 26 232 27 923 1 1060 -2 11 -7 56 -11 100 -4 44 -8 87 -10 95 -2 8 -6 38 -9 65 -4 28 -12 79 -17 115 -6 36 -13 79 -16 95 -14 90 -78 370 -113 495 -22 80 -42 152 -44 160 -11 43 -100 300 -140 402 -84 214 -193 448 -311 664 -76 138 -277 457 -330 522 -8 9 -47 62 -87 117 -41 55 -81 107 -89 115 -8 8 -32 38 -54 65 -22 28 -44 55 -50 61 -5 6 -35 40 -65 75 -69 81 -364 376 -450 450 -36 31 -94 81 -130 110 -36 30 -70 58 -76 64 -6 5 -22 17 -34 25 -12 8 -28 20 -34 26 -23 22 -165 123 -266 191 -383 255 -763 441 -1203 588 -147 48 -418 123 -507 139 -19 3 -46 9 -60 11 -53 12 -247 45 -291 50 -25 3 -54 7 -65 9 -11 2 -60 7 -110 11 -49 4 -98 9 -109 12 -23 5 -611 14 -616 9z" transform="translate(0.000000,1080.000000) scale(0.100000,-0.100000)"/></g></svg>